<svg version="1.0" xmlns="http://www.w3.org/2000/svg" width="298.000000pt" height="309.000000pt" viewBox="0 0 298.000000 309.000000" preserveAspectRatio="xMidYMid meet">

<g transform="translate(0.000000,309.000000) scale(0.100000,-0.100000)" fill="#f1ff4b" stroke="none">
<path d="M1298 2804 c-363 -56 -685 -292 -853 -624 -164 -326 -164 -714 0 -1040 226 -447 713 -700 1205 -626 506 77 899 470 976 976 35 236 -4 477 -111 690 -228 451 -718 702 -1217 624z m177 -1139 l0 -910 -75 1 c-183 3 -386 95 -546 247 -366 346 -381 925 -35 1291 163 172 413 289 601 283 l55 -2 0 -910z" fill="#f1ff4b"/>
</g>
</svg>