<svg xmlns="http://www.w3.org/2000/svg" viewBox="0 0 64 64" width="256" height="256"><path d="M8.83 40.83C3.96 40.83 0 36.87 0 32s3.96-8.83 8.83-8.83 8.83 3.96 8.83 8.83-3.96 8.83-8.83 8.83zm0-13.02c-2.31 0-4.19 1.88-4.19 4.19s1.88 4.19 4.19 4.19c2.31 0 4.19-1.88 4.19-4.19s-1.88-4.19-4.19-4.19zM32 40.83c-4.87 0-8.83-3.96-8.83-8.83s3.96-8.83 8.83-8.83 8.83 3.96 8.83 8.83-3.96 8.83-8.83 8.83zm0-13.02c-2.31 0-4.19 1.88-4.19 4.19s1.88 4.19 4.19 4.19c2.31 0 4.19-1.88 4.19-4.19s-1.88-4.19-4.19-4.19zm23.17 13.02c-4.87 0-8.83-3.96-8.83-8.83s3.96-8.83 8.83-8.83S64 27.13 64 32s-3.96 8.83-8.83 8.83zm0-13.02c-2.31 0-4.19 1.88-4.19 4.19s1.88 4.19 4.19 4.19 4.19-1.88 4.19-4.19-1.88-4.19-4.19-4.19z" fill="#000000" class="color000 svgShape"></path></svg>