<svg width="11" height="11" viewBox="0 0 11 11" fill="none" xmlns="http://www.w3.org/2000/svg">
<mask id="mask0_18_31" style="mask-type:alpha" maskUnits="userSpaceOnUse" x="0" y="0" width="11" height="11">
<rect x="0.600098" y="0.5" width="10" height="10" fill="#BEC2C8"/>
</mask>
<g mask="url(#mask0_18_31)">
<path d="M5.60002 9.66667C5.02363 9.66667 4.48196 9.55729 3.97502 9.33854C3.46807 9.11979 3.0271 8.82292 2.6521 8.44792C2.2771 8.07292 1.98022 7.63194 1.76147 7.125C1.54272 6.61806 1.43335 6.07639 1.43335 5.5C1.43335 4.92361 1.54272 4.38194 1.76147 3.875C1.98022 3.36806 2.2771 2.92708 2.6521 2.55208C3.0271 2.17708 3.46807 1.88021 3.97502 1.66146C4.48196 1.44271 5.02363 1.33333 5.60002 1.33333C6.1764 1.33333 6.71807 1.44271 7.22502 1.66146C7.73196 1.88021 8.17293 2.17708 8.54793 2.55208C8.92293 2.92708 9.21981 3.36806 9.43856 3.875C9.65731 4.38194 9.76668 4.92361 9.76668 5.5C9.76668 6.07639 9.65731 6.61806 9.43856 7.125C9.21981 7.63194 8.92293 8.07292 8.54793 8.44792C8.17293 8.82292 7.73196 9.11979 7.22502 9.33854C6.71807 9.55729 6.1764 9.66667 5.60002 9.66667ZM5.60002 8.83333C6.53057 8.83333 7.31877 8.51042 7.9646 7.86458C8.61043 7.21875 8.93335 6.43056 8.93335 5.5C8.93335 4.56944 8.61043 3.78125 7.9646 3.13542C7.31877 2.48958 6.53057 2.16667 5.60002 2.16667C4.66946 2.16667 3.88127 2.48958 3.23543 3.13542C2.5896 3.78125 2.26668 4.56944 2.26668 5.5C2.26668 6.43056 2.5896 7.21875 3.23543 7.86458C3.88127 8.51042 4.66946 8.83333 5.60002 8.83333ZM5.60002 8.83333C4.66946 8.83333 3.88127 8.51042 3.23543 7.86458C2.5896 7.21875 2.26668 6.43056 2.26668 5.5C2.26668 4.56944 2.5896 3.78125 3.23543 3.13542C3.88127 2.48958 4.66946 2.16667 5.60002 2.16667C6.53057 2.16667 7.31877 2.48958 7.9646 3.13542C8.61043 3.78125 8.93335 4.56944 8.93335 5.5C8.93335 6.43056 8.61043 7.21875 7.9646 7.86458C7.31877 8.51042 6.53057 8.83333 5.60002 8.83333Z" fill="#BEC2C8"/>
</g>
</svg> 