<svg version="1.0" xmlns="http://www.w3.org/2000/svg" width="240.000000pt" height="240.000000pt" viewBox="0 0 240.000000 240.000000" preserveAspectRatio="xMidYMid meet">

<g transform="translate(0.000000,240.000000) scale(0.100000,-0.100000)" fill="#c4c4c4" stroke="none">
<path d="M1025 2386 c-158 -27 -281 -69 -408 -139 -307 -172 -519 -463 -594 -817 -24 -117 -24 -343 0 -460 103 -486 461 -844 947 -947 117 -24 343 -24 460 0 318 68 591 249 762 507 144 219 203 411 203 670 0 212 -39 374 -132 550 -172 327 -467 550 -828 625 -107 23 -309 28 -410 11z m400 -111 c375 -79 689 -356 811 -713 174 -509 -32 -1053 -501 -1321 -218 -125 -507 -169 -760 -116 -374 78 -689 356 -811 713 -221 647 182 1328 856 1446 106 19 295 15 405 -9z" fill="#c4c4c4"/>
</g>
</svg>