<svg xmlns="http://www.w3.org/2000/svg" viewBox="0 0 64 64" width="256" height="256"><path d="M32 0C14.63 0 .49 14.35.49 32S14.63 64 32 64s31.51-14.35 31.51-32S49.37 0 32 0zm26.17 32c0 14.65-11.74 26.57-26.17 26.57C17.58 58.57 5.84 46.65 5.84 32S17.58 5.43 32 5.43c14.43 0 26.17 11.92 26.17 26.57z" fill="#000000" class="color000 svgShape"></path><path d="M36.05 15.04c-.02 0-2.29.4-4.52.98-1.8.45-3.11.91-3.9 1.33-.16.09-.25.26-.24.44l.7 23.27c.01.27.21.47.48.47h5.9c.25 0 .46-.2.47-.45l1.67-25.53c.01-.16-.05-.3-.16-.39a.483.483 0 0 0-.4-.12zm-2 27.61h-4.81c-.68 0-1.23.57-1.23 1.26v3.8c0 .69.55 1.25 1.23 1.25h4.81c.69 0 1.25-.56 1.25-1.25v-3.8c0-.69-.57-1.26-1.25-1.26z" fill="#000000" class="color000 svgShape"></path></svg>